<mxfile host="app.diagrams.net" modified="2024-04-19T06:03:27.043Z" agent="Mozilla/5.0 (Windows NT 10.0; Win64; x64) AppleWebKit/537.36 (KHTML, like Gecko) Chrome/120.0.0.0 Safari/537.36" etag="htVdVw3rtk4MAPVIfm0-" version="24.2.5" type="github">
  <diagram name="第 1 页" id="yuuOQ21rpZtRjdnP8Vn5">
    <mxGraphModel dx="1434" dy="772" grid="1" gridSize="10" guides="1" tooltips="1" connect="1" arrows="1" fold="1" page="1" pageScale="1" pageWidth="827" pageHeight="1169" math="0" shadow="0">
      <root>
        <mxCell id="0" />
        <mxCell id="1" parent="0" />
        <mxCell id="7RT1Pp-6hHTGO0pvkq0_-13" value="" style="edgeStyle=orthogonalEdgeStyle;rounded=0;orthogonalLoop=1;jettySize=auto;html=1;" edge="1" parent="1" target="7RT1Pp-6hHTGO0pvkq0_-2">
          <mxGeometry relative="1" as="geometry">
            <mxPoint x="320" y="230" as="sourcePoint" />
          </mxGeometry>
        </mxCell>
        <mxCell id="7RT1Pp-6hHTGO0pvkq0_-21" value="" style="edgeStyle=orthogonalEdgeStyle;rounded=0;orthogonalLoop=1;jettySize=auto;html=1;" edge="1" parent="1" source="7RT1Pp-6hHTGO0pvkq0_-2" target="7RT1Pp-6hHTGO0pvkq0_-20">
          <mxGeometry relative="1" as="geometry" />
        </mxCell>
        <mxCell id="7RT1Pp-6hHTGO0pvkq0_-2" value="填写实验课程信息" style="rounded=1;whiteSpace=wrap;html=1;absoluteArcSize=1;arcSize=14;strokeWidth=2;" vertex="1" parent="1">
          <mxGeometry x="240" y="290" width="160" height="60" as="geometry" />
        </mxCell>
        <mxCell id="7RT1Pp-6hHTGO0pvkq0_-3" value="" style="strokeWidth=2;html=1;shape=mxgraph.flowchart.annotation_2;align=left;labelPosition=right;pointerEvents=1;" vertex="1" parent="1">
          <mxGeometry x="400" y="140" width="100" height="350" as="geometry" />
        </mxCell>
        <mxCell id="7RT1Pp-6hHTGO0pvkq0_-4" value="实验课程名称" style="shape=parallelogram;html=1;strokeWidth=2;perimeter=parallelogramPerimeter;whiteSpace=wrap;rounded=1;arcSize=12;size=0.11842105263157894;" vertex="1" parent="1">
          <mxGeometry x="480" y="110" width="190" height="60" as="geometry" />
        </mxCell>
        <mxCell id="7RT1Pp-6hHTGO0pvkq0_-5" value="实验教学计划" style="shape=parallelogram;html=1;strokeWidth=2;perimeter=parallelogramPerimeter;whiteSpace=wrap;rounded=1;arcSize=12;size=0.11842105263157894;" vertex="1" parent="1">
          <mxGeometry x="470" y="200" width="190" height="60" as="geometry" />
        </mxCell>
        <mxCell id="7RT1Pp-6hHTGO0pvkq0_-7" value="指导教师" style="shape=parallelogram;html=1;strokeWidth=2;perimeter=parallelogramPerimeter;whiteSpace=wrap;rounded=1;arcSize=12;size=0.11842105263157894;" vertex="1" parent="1">
          <mxGeometry x="470" y="270" width="190" height="60" as="geometry" />
        </mxCell>
        <mxCell id="7RT1Pp-6hHTGO0pvkq0_-14" value="" style="endArrow=none;html=1;rounded=0;exitX=0;exitY=0.5;exitDx=0;exitDy=0;" edge="1" parent="1" source="7RT1Pp-6hHTGO0pvkq0_-5">
          <mxGeometry width="50" height="50" relative="1" as="geometry">
            <mxPoint x="390" y="420" as="sourcePoint" />
            <mxPoint x="450" y="230" as="targetPoint" />
          </mxGeometry>
        </mxCell>
        <mxCell id="7RT1Pp-6hHTGO0pvkq0_-15" value="" style="endArrow=none;html=1;rounded=0;entryX=0.5;entryY=0.459;entryDx=0;entryDy=0;entryPerimeter=0;exitX=0;exitY=0.5;exitDx=0;exitDy=0;" edge="1" parent="1" source="7RT1Pp-6hHTGO0pvkq0_-7" target="7RT1Pp-6hHTGO0pvkq0_-3">
          <mxGeometry width="50" height="50" relative="1" as="geometry">
            <mxPoint x="390" y="420" as="sourcePoint" />
            <mxPoint x="440" y="370" as="targetPoint" />
          </mxGeometry>
        </mxCell>
        <mxCell id="7RT1Pp-6hHTGO0pvkq0_-16" value="教学目的和要求" style="shape=parallelogram;html=1;strokeWidth=2;perimeter=parallelogramPerimeter;whiteSpace=wrap;rounded=1;arcSize=12;size=0.11842105263157894;" vertex="1" parent="1">
          <mxGeometry x="460" y="360" width="190" height="60" as="geometry" />
        </mxCell>
        <mxCell id="7RT1Pp-6hHTGO0pvkq0_-17" value="" style="endArrow=none;html=1;rounded=0;" edge="1" parent="1" source="7RT1Pp-6hHTGO0pvkq0_-16">
          <mxGeometry width="50" height="50" relative="1" as="geometry">
            <mxPoint x="390" y="420" as="sourcePoint" />
            <mxPoint x="450" y="390" as="targetPoint" />
          </mxGeometry>
        </mxCell>
        <mxCell id="7RT1Pp-6hHTGO0pvkq0_-18" value="课程介绍" style="shape=parallelogram;html=1;strokeWidth=2;perimeter=parallelogramPerimeter;whiteSpace=wrap;rounded=1;arcSize=12;size=0.11842105263157894;" vertex="1" parent="1">
          <mxGeometry x="470" y="450" width="190" height="60" as="geometry" />
        </mxCell>
        <mxCell id="7RT1Pp-6hHTGO0pvkq0_-23" value="" style="edgeStyle=orthogonalEdgeStyle;rounded=0;orthogonalLoop=1;jettySize=auto;html=1;" edge="1" parent="1" source="7RT1Pp-6hHTGO0pvkq0_-20" target="7RT1Pp-6hHTGO0pvkq0_-22">
          <mxGeometry relative="1" as="geometry" />
        </mxCell>
        <mxCell id="7RT1Pp-6hHTGO0pvkq0_-20" value="点击提交按钮" style="rounded=1;whiteSpace=wrap;html=1;absoluteArcSize=1;arcSize=14;strokeWidth=2;" vertex="1" parent="1">
          <mxGeometry x="240" y="420" width="160" height="60" as="geometry" />
        </mxCell>
        <mxCell id="7RT1Pp-6hHTGO0pvkq0_-29" value="" style="edgeStyle=orthogonalEdgeStyle;rounded=0;orthogonalLoop=1;jettySize=auto;html=1;" edge="1" parent="1" source="7RT1Pp-6hHTGO0pvkq0_-22" target="7RT1Pp-6hHTGO0pvkq0_-28">
          <mxGeometry relative="1" as="geometry" />
        </mxCell>
        <mxCell id="7RT1Pp-6hHTGO0pvkq0_-22" value="实验课程在数据库中添加成功" style="rounded=1;whiteSpace=wrap;html=1;absoluteArcSize=1;arcSize=14;strokeWidth=2;" vertex="1" parent="1">
          <mxGeometry x="240" y="550" width="160" height="60" as="geometry" />
        </mxCell>
        <mxCell id="7RT1Pp-6hHTGO0pvkq0_-24" value="管理员/教师添加实验课程" style="rounded=1;whiteSpace=wrap;html=1;absoluteArcSize=1;arcSize=14;strokeWidth=2;" vertex="1" parent="1">
          <mxGeometry x="240" y="180" width="160" height="60" as="geometry" />
        </mxCell>
        <mxCell id="7RT1Pp-6hHTGO0pvkq0_-27" value="" style="edgeStyle=orthogonalEdgeStyle;rounded=0;orthogonalLoop=1;jettySize=auto;html=1;" edge="1" parent="1" source="7RT1Pp-6hHTGO0pvkq0_-26" target="7RT1Pp-6hHTGO0pvkq0_-24">
          <mxGeometry relative="1" as="geometry" />
        </mxCell>
        <mxCell id="7RT1Pp-6hHTGO0pvkq0_-26" value="开始" style="strokeWidth=2;html=1;shape=mxgraph.flowchart.start_1;whiteSpace=wrap;" vertex="1" parent="1">
          <mxGeometry x="250" y="70" width="140" height="60" as="geometry" />
        </mxCell>
        <mxCell id="7RT1Pp-6hHTGO0pvkq0_-28" value="结束" style="strokeWidth=2;html=1;shape=mxgraph.flowchart.start_1;whiteSpace=wrap;" vertex="1" parent="1">
          <mxGeometry x="250" y="640" width="140" height="60" as="geometry" />
        </mxCell>
      </root>
    </mxGraphModel>
  </diagram>
</mxfile>
